<?xml version="1.0" encoding="UTF-8" standalone="no"?>
<svg
   xmlns:dc="http://purl.org/dc/elements/1.1/"
   xmlns:cc="http://creativecommons.org/ns#"
   xmlns:rdf="http://www.w3.org/1999/02/22-rdf-syntax-ns#"
   xmlns:svg="http://www.w3.org/2000/svg"
   xmlns="http://www.w3.org/2000/svg"
   xmlns:xlink="http://www.w3.org/1999/xlink"
   xmlns:sodipodi="http://sodipodi.sourceforge.net/DTD/sodipodi-0.dtd"
   xmlns:inkscape="http://www.inkscape.org/namespaces/inkscape"
   width="48"
   viewBox="0 0 13.546667 13.546667"
   height="48"
   id="svg2"
   version="1.1"
   inkscape:version="0.48.5 r10040"
   sodipodi:docname="antergos square.svg"
   inkscape:export-filename="/home/i-sty/Desktop/antergossquare1.png"
   inkscape:export-xdpi="960"
   inkscape:export-ydpi="960">
  <metadata
     id="metadata34">
    <rdf:RDF>
      <cc:Work
         rdf:about="">
        <dc:format>image/svg+xml</dc:format>
        <dc:type
           rdf:resource="http://purl.org/dc/dcmitype/StillImage" />
        <dc:title></dc:title>
      </cc:Work>
    </rdf:RDF>
  </metadata>
  <sodipodi:namedview
     pagecolor="#ffffff"
     bordercolor="#666666"
     borderopacity="1"
     objecttolerance="10"
     gridtolerance="10"
     guidetolerance="10"
     inkscape:pageopacity="0"
     inkscape:pageshadow="2"
     inkscape:window-width="1366"
     inkscape:window-height="750"
     id="namedview32"
     showgrid="false"
     inkscape:zoom="14.142136"
     inkscape:cx="22.222786"
     inkscape:cy="24.17018"
     inkscape:window-x="0"
     inkscape:window-y="0"
     inkscape:window-maximized="0"
     inkscape:current-layer="svg2"
     inkscape:object-paths="true" />
  <defs
     id="defs4">
    <linearGradient
       id="0">
      <stop
         stop-color="#215987"
         id="stop7"
         offset="0"
         style="stop-color:#296da6;stop-opacity:1;" />
      <stop
         offset="1"
         stop-color="#628fb9"
         id="stop9"
         style="stop-color:#0f3f87;stop-opacity:1;" />
    </linearGradient>
    <linearGradient
       gradientTransform="matrix(0.28222223,0,0,0.28222223,0,-283.45334)"
       xlink:href="#0"
       id="1"
       y1="1050.36"
       x2="0"
       y2="1006.36"
       gradientUnits="userSpaceOnUse" />
    <radialGradient
       inkscape:collect="always"
       xlink:href="#0"
       id="radialGradient3787"
       cx="6.7730002"
       cy="6.7730002"
       fx="6.7730002"
       fy="6.7730002"
       r="6.2715001"
       gradientUnits="userSpaceOnUse" />
  </defs>
  <g
     transform="matrix(0.28222223,0,0,0.28222223,0,-283.45334)"
     id="g12">
    <path
       transform="translate(0,1004.3622)"
       d="M 5.1875,1 C 2.8707723,1 1,2.8707723 1,5.1875 l 0,37.625 C 1,45.129228 2.8707723,47 5.1875,47 l 37.625,0 C 45.129228,47 47,45.129228 47,42.8125 L 47,5.1875 C 47,2.8707723 45.129228,1 42.8125,1 L 5.1875,1 z m 0.1875,0.25 37.25,0 c 2.291546,0 4.125,1.8334541 4.125,4.125 l 0,37.25 c 0,2.291546 -1.833454,4.125 -4.125,4.125 l -37.25,0 C 3.0834541,46.75 1.25,44.916546 1.25,42.625 l 0,-37.25 C 1.25,3.0834541 3.0834541,1.25 5.375,1.25 z"
       id="path14"
       opacity="0.05" />
    <path
       transform="translate(0,1004.3622)"
       d="M 5.375,1.25 C 3.0834541,1.25 1.25,3.0834541 1.25,5.375 l 0,37.25 c 0,2.291546 1.8334541,4.125 4.125,4.125 l 37.25,0 c 2.291546,0 4.125,-1.833454 4.125,-4.125 l 0,-37.25 C 46.75,3.0834541 44.916546,1.25 42.625,1.25 l -37.25,0 z m 0.21875,0.25 36.8125,0 C 44.672614,1.5 46.5,3.3273859 46.5,5.59375 l 0,36.8125 C 46.5,44.672614 44.672614,46.5 42.40625,46.5 l -36.8125,0 C 3.3273859,46.5 1.5,44.672614 1.5,42.40625 l 0,-36.8125 C 1.5,3.3273859 3.3273859,1.5 5.59375,1.5 z"
       id="path16"
       opacity="0.1" />
    <path
       transform="translate(0,1004.3622)"
       d="M 5.59375,1.5 C 3.3273859,1.5 1.5,3.3273859 1.5,5.59375 l 0,36.8125 C 1.5,44.672614 3.3273859,46.5 5.59375,46.5 l 36.8125,0 C 44.672614,46.5 46.5,44.672614 46.5,42.40625 l 0,-36.8125 C 46.5,3.3273859 44.672614,1.5 42.40625,1.5 l -36.8125,0 z m 0.09375,0.125 36.625,0 c 2.253773,0 4.0625,1.8087269 4.0625,4.0625 l 0,36.625 c 0,2.253773 -1.808727,4.0625 -4.0625,4.0625 l -36.625,0 c -2.2537731,0 -4.0625,-1.808727 -4.0625,-4.0625 l 0,-36.625 C 1.625,3.4337269 3.4337269,1.625 5.6875,1.625 z"
       id="path18"
       opacity="0.2" />
    <path
       transform="translate(0,1004.3622)"
       d="M 5.6875,1.625 C 3.4337269,1.625 1.625,3.4337269 1.625,5.6875 l 0,36.625 c 0,2.253773 1.8087269,4.0625 4.0625,4.0625 l 36.625,0 c 2.253773,0 4.0625,-1.808727 4.0625,-4.0625 l 0,-36.625 c 0,-2.2537731 -1.808727,-4.0625 -4.0625,-4.0625 l -36.625,0 z m 0.09375,0.125 36.4375,0 c 2.241182,0 4.03125,1.7900679 4.03125,4.03125 l 0,36.4375 c 0,2.241182 -1.790068,4.03125 -4.03125,4.03125 l -36.4375,0 C 3.5400679,46.25 1.75,44.459932 1.75,42.21875 l 0,-36.4375 C 1.75,3.5400679 3.5400679,1.75 5.78125,1.75 z"
       id="path20"
       opacity="0.3" />
    <path
       transform="translate(0,1004.3622)"
       d="M 5.78125,1.75 C 3.5400679,1.75 1.75,3.5400679 1.75,5.78125 l 0,36.4375 c 0,2.241182 1.7900679,4.03125 4.03125,4.03125 l 36.4375,0 c 2.241182,0 4.03125,-1.790068 4.03125,-4.03125 l 0,-36.4375 C 46.25,3.5400679 44.459932,1.75 42.21875,1.75 l -36.4375,0 z m 0.125,0.125 36.1875,0 c 2.228591,0 4.03125,1.802659 4.03125,4.03125 l 0,36.1875 c 0,2.228591 -1.802659,4.03125 -4.03125,4.03125 l -36.1875,0 C 3.677659,46.125 1.875,44.322341 1.875,42.09375 l 0,-36.1875 C 1.875,3.677659 3.677659,1.875 5.90625,1.875 z"
       id="path22"
       opacity="0.4" />
    <rect
       width="44.25"
       height="44.25"
       x="1.875"
       y="1006.24"
       rx="4.02"
       id="rect24"
       opacity="0.5" />
  </g>
  <rect
     width="12.418"
     height="12.418"
     x="0.564"
     y="0.564"
     rx="1.129"
     id="rect26"
     style="fill-opacity:1;stroke:#0f2655;stroke-opacity:1;stroke-width:0.02822222000000000;stroke-miterlimit:4;stroke-dasharray:none;stroke-linejoin:miter;stroke-linecap:butt;fill-rule:nonzero;fill:url(#radialGradient3787)"
     fill="url(#1)" />
  <g
     id="g2996"
     transform="matrix(0.08299001,0,0,0.08313911,-36.031905,-31.637074)"
     style="fill:#7692bb;fill-opacity:1;stroke:#0f2655;stroke-width:0.33976264000000000;stroke-miterlimit:4;stroke-opacity:0.5;stroke-dasharray:none">
    <path
       sodipodi:nodetypes="cccc"
       inkscape:connector-curvature="0"
       id="path2986"
       d="m 459.72266,433.3739 c 0,0 26.45702,-7.69922 60.3164,-34.12891 0,0 -3.79687,39.46875 -65.30468,77.97266 -6.05981,-25.35911 4.98828,-43.84375 4.98828,-43.84375 z"
       style="fill:#7692bb;fill-opacity:1;stroke:#0f2655;stroke-width:0.33976264000000000;stroke-miterlimit:4;stroke-opacity:0.5;stroke-dasharray:none" />
    <path
       style="fill:#7692bb;fill-opacity:1;stroke:#0f2655;stroke-width:0.33976264000000000;stroke-miterlimit:4;stroke-opacity:0.5;stroke-dasharray:none"
       d="m 480.35157,513.90514 c 0,0 39.81428,-44.76506 52.06249,-112.55469 0,0 25.93043,50.46443 -5.8789,122.51172 -27.36129,4.59198 -46.18359,-9.95703 -46.18359,-9.95703 z"
       id="path2988"
       inkscape:connector-curvature="0"
       sodipodi:nodetypes="cccc" />
    <path
       sodipodi:nodetypes="ccc"
       inkscape:connector-curvature="0"
       id="path2990"
       d="m 566.07704,499.55008 c 0,0 4.31939,-43.9382 -17.90294,-91.44098 24.98855,13.51429 44.15031,55.40677 17.90294,91.44098 z"
       style="fill:#7692bb;fill-opacity:1;stroke:#0f2655;stroke-width:0.33976264000000000;stroke-miterlimit:4;stroke-opacity:0.5;stroke-dasharray:none" />
  </g>
</svg>
