<svg xmlns="http://www.w3.org/2000/svg" width="32" height="32.007"><path fill="#EFC75E" d="M15.997.017c8.83 0 15.986 7.158 15.986 15.988 0 8.829-7.156 15.987-15.986 15.987-8.829 0-15.986-7.158-15.986-15.987 0-8.83 7.157-15.988 15.986-15.988z"/><path fill="#D9B455" d="M15.997 6.923c5.753 0 10.471 4.434 10.956 10.081.027-.316.044-.635.044-.959 0-6.098-4.924-11.039-11-11.039-6.075 0-11 4.941-11 11.039 0 .324.018.643.044.959.485-5.648 5.204-10.081 10.956-10.081z"/><path fill="#E2574C" d="M29.992 19.158c-.684.184-1.401.328-2.138.424-.735.082-1.486.115-2.238.098-.748-.025-1.492-.109-2.215-.232l-.535-.109-.265-.057-.26-.066-.513-.137-.498-.156-.244-.078-.236-.088-.467-.174c-.299-.129-.596-.248-.871-.379l-.404-.199-.385-.199c-.243-.139-.484-.264-.698-.398l-.603-.379-.498-.35-.215-.15-.182-.143-.289-.225-.178-.141.232.053.361.08.229.051.263.045.618.105.737.088c.265.031.547.041.848.062l.463.016.488.008c.333 0 .68-.02 1.043-.034l.551-.049.283-.025.287-.037.587-.082.599-.111.307-.059.307-.072.624-.152c.833-.232 1.69-.523 2.544-.891.85-.373 1.697-.814 2.519-1.322.564-.356 1.109-.753 1.642-1.166-.478-2.152-1.392-4.135-2.641-5.864-.228.56-.49 1.132-.808 1.7-.353.613-.757 1.225-1.212 1.812-.461.578-.969 1.133-1.513 1.65-.548.512-1.133.979-1.731 1.402l-.455.301-.227.148-.231.135-.459.268-.462.24-.229.119-.229.104-.453.209c-.303.119-.597.244-.885.348l-.427.145-.412.131c-.271.074-.529.156-.775.213l-.694.158-.6.105-.259.043-.229.029-.363.045-.264.031-.015-.012.233-.146.312-.199.198-.127.218-.152.511-.363.583-.459c.21-.166.416-.359.645-.555l.339-.316.35-.34c.235-.236.467-.494.714-.762l.355-.424.184-.219.176-.229.357-.473.345-.502.175-.258.166-.268.334-.549c.424-.754.824-1.566 1.168-2.43.336-.865.623-1.775.847-2.715.146-.65.251-1.313.335-1.98-1.793-1.142-3.827-1.931-6.011-2.283.233.556.452 1.146.629 1.771.185.684.329 1.4.424 2.137.083.734.116 1.486.099 2.238-.027.748-.11 1.492-.232 2.215l-.109.535-.057.266-.067.258-.136.514-.156.498-.078.244-.088.236-.174.467c-.129.299-.248.596-.38.871l-.198.404-.199.385-.398.697-.379.604-.35.498-.151.215-.142.182-.227.289-.171.219-.011-.01.061-.268.081-.359.051-.23.046-.262.104-.619.088-.736c.031-.266.041-.549.062-.85l.017-.461.007-.488c0-.334-.02-.68-.033-1.043l-.048-.551-.025-.285-.037-.285-.082-.588-.111-.6-.059-.305-.071-.307-.153-.625c-.233-.832-.524-1.689-.892-2.543-.373-.85-.814-1.697-1.32-2.52-.357-.563-.754-1.108-1.167-1.641-2.151.478-4.134 1.392-5.862 2.64.559.229 1.13.491 1.697.807.614.354 1.225.758 1.812 1.211.579.463 1.134.971 1.651 1.514.512.549.979 1.133 1.404 1.73l.299.455.148.229.136.23.267.459.241.461.117.229.105.23.208.453c.119.303.244.596.348.885l.145.426.131.412c.074.271.156.529.213.775l.158.695.105.6.044.258.028.229.045.363.03.258-.155-.246-.197-.312-.127-.199-.154-.217-.362-.512-.46-.582-.555-.645-.316-.338-.34-.35c-.234-.236-.494-.467-.761-.715l-.423-.355-.219-.184-.229-.176-.474-.357-.503-.344-.258-.176-.268-.166-.549-.334c-.754-.424-1.566-.824-2.43-1.168-.863-.334-1.774-.621-2.714-.844-.644-.146-1.3-.25-1.96-.333-1.147 1.791-1.94 3.823-2.297 6.007.555-.233 1.142-.45 1.765-.626.684-.186 1.4-.33 2.137-.426.736-.082 1.488-.115 2.238-.098.75.027 1.492.109 2.217.232l.533.109.266.057.26.068.514.135.496.156.244.078.238.088.467.174c.298.129.594.248.871.379l.404.199.383.199c.244.139.485.264.699.398l.604.379.498.35.214.15.183.143.287.227.234.184v.004l-.291-.066-.361-.08-.229-.053-.263-.045-.618-.104-.737-.088c-.265-.031-.547-.041-.848-.062l-.463-.018-.488-.006c-.332 0-.68.02-1.043.033l-.551.047-.283.027-.287.037-.586.08-.6.111-.307.061-.307.07-.624.152c-.833.234-1.69.526-2.544.893-.85.373-1.696.814-2.518 1.32-.568.359-1.115.759-1.65 1.174.475 2.157 1.389 4.146 2.638 5.879.23-.566.496-1.146.818-1.721.353-.615.757-1.225 1.212-1.812.461-.578.969-1.133 1.513-1.652.548-.51 1.133-.977 1.731-1.402l.455-.299.227-.148.231-.135.46-.268.461-.242.229-.117.229-.105.452-.207c.303-.119.597-.244.885-.348l.427-.145.413-.131c.27-.074.528-.157.774-.213l.694-.158.6-.105.259-.045.229-.027.363-.045.297-.035.001.004-.253.158-.312.197-.198.127-.218.155-.511.363-.583.459c-.209.166-.416.357-.645.555l-.338.316-.351.34c-.235.236-.466.494-.714.762l-.355.422-.184.221-.176.229-.356.473-.346.502-.175.258-.166.268-.334.549c-.424.754-.824 1.566-1.168 2.43-.336.865-.623 1.775-.846 2.715-.15.661-.255 1.336-.34 2.014 1.798 1.146 3.838 1.936 6.03 2.287-.24-.568-.463-1.17-.644-1.809-.185-.684-.329-1.4-.424-2.137-.083-.736-.116-1.488-.099-2.238.027-.748.11-1.492.232-2.215l.109-.535.057-.266.067-.26.136-.514.156-.496.078-.244.088-.236.174-.467c.129-.299.248-.596.38-.871l.198-.404.199-.385c.14-.244.264-.484.398-.697l.379-.605.35-.496.151-.215.142-.184.227-.287.184-.234.001.012-.063.279-.081.362-.051.23-.045.262-.104.619-.088.736c-.031.266-.041.547-.062.848l-.017.463-.007.488c0 .334.02.68.033 1.043l.048.551.025.283.038.287.082.586.11.6.059.307.071.307.153.625c.233.832.524 1.689.892 2.543.373.85.814 1.697 1.32 2.518.364.575.769 1.13 1.19 1.672 2.155-.482 4.141-1.401 5.87-2.657-.568-.23-1.151-.497-1.729-.819-.614-.354-1.224-.758-1.812-1.213-.579-.461-1.134-.969-1.651-1.512-.512-.549-.979-1.133-1.403-1.732l-.3-.455-.148-.227-.135-.23-.268-.461-.241-.461-.117-.229-.105-.229-.208-.453c-.119-.303-.244-.596-.348-.885l-.145-.426-.131-.414c-.074-.27-.156-.527-.213-.773l-.158-.695-.105-.6-.044-.258-.028-.229-.045-.366-.031-.268.021.004.137.219.198.313.127.199.153.217.363.512.459.582c.166.211.358.416.556.645l.315.34.34.35c.236.234.495.467.762.713l.424.355.219.184.229.176.473.357.502.346.259.174.267.166.551.334c.752.424 1.565.824 2.428 1.168.865.336 1.776.623 2.715.846.656.148 1.325.254 1.998.339 1.138-1.795 1.921-3.83 2.269-6.016-.556.23-1.147.449-1.773.627zm-13.992-3.175l.003-.01.006.012-.008.01-.001-.012zm.003.02l-.001-.004.011-.008.006.01-.016.002z"/><g fill="#CC4E45"><path d="M11.817 6.579c.27.29.525.589.771.895 1.027-.336 2.118-.528 3.253-.544-.179-.62-.398-1.251-.649-1.885-1.385.101-2.696.459-3.892 1.027.175.168.351.332.517.507zM25.42 11.825l-.186.161c.649 1.008 1.135 2.129 1.429 3.327l.292-.113c-.105-1.384-.465-2.693-1.031-3.888-.166.172-.33.348-.504.513zM19.619 7.548c1.046.366 2.02.882 2.895 1.53.233-.445.454-.908.662-1.388-1.015-.879-2.19-1.569-3.478-2.031.005.242.014.484.008.727-.015.389-.045.777-.087 1.162zM5.031 16.777l.01.227.033-.243-.043.016zM6.38 12.259l.198.014c.651-1.084 1.486-2.042 2.457-2.842-.427-.222-.868-.432-1.326-.631-.878 1.011-1.571 2.182-2.038 3.466l.709-.007z"/></g></svg>