<svg xmlns="http://www.w3.org/2000/svg" width="31.922" height="31.986"><path fill="#4ED5BD" d="M31.922 31.966l-6.986-10.973-17.902.021-7.034 10.952 16.039.021 15.883-.021z"/><path fill="#F4B459" d="M16-.001c-5.52 0-9.995 4.233-9.995 9.455 0 .208.189 3.026.924 4.296 2.473 5.364 9.061 11.278 9.071 11.257.009.031 6.625-5.918 9.086-11.287.859-1.733.909-4.164.909-4.266 0-5.221-4.475-9.455-9.995-9.455zm-.001 14.004c-2.209 0-4-1.791-4-4s1.791-4 4-4 4 1.791 4 4-1.791 4-4 4z"/><path fill="#CCA032" d="M15.999 5.003c-2.761 0-5 2.238-5 5 0 2.763 2.239 5 5 5 2.763 0 5-2.238 5-5 0-2.761-2.237-5-5-5zm0 8c-1.657 0-3-1.343-3-3 0-1.656 1.343-3 3-3s3 1.344 3 3c0 1.657-1.343 3-3 3z"/><path fill="#26A6D1" d="M22.999 28.003c-1.251.559-3.952 1.016-5.017 1.012-.918-.006-3.708-.592-4.983-1.012-.122-.039-3.574-1.736-6-2-2.524-.271-3 0-3 0l-.862 1.078-3.137 4.885 16.039.021 15.883-.021-4.291-6.738c-1.111.675-4.413 2.677-4.632 2.775z"/></svg>