<svg xmlns="http://www.w3.org/2000/svg" width="24.986" height="32.01"><path fill="#51BBA8" d="M12.492-.005c-6.899 0-12.493 5.418-12.493 12.102 0 .13.062 3.24 1.136 5.458 3.077 6.875 11.346 14.488 11.357 14.449.014.026 8.248-7.545 11.34-14.408.918-1.627 1.154-5.234 1.154-5.5.001-6.683-5.594-12.101-12.494-12.101zm.002 16.004c-1.935 0-3.5-1.566-3.5-3.499 0-1.934 1.565-3.501 3.5-3.501 1.934 0 3.5 1.567 3.5 3.501 0 1.933-1.566 3.499-3.5 3.499z"/><path fill="#2B7D6E" d="M12.494 7c-3.037 0-5.5 2.462-5.5 5.5 0 3.037 2.463 5.499 5.5 5.499s5.5-2.462 5.5-5.499c0-3.038-2.463-5.5-5.5-5.5zm0 8.999c-1.935 0-3.5-1.566-3.5-3.499 0-1.934 1.565-3.501 3.5-3.501 1.934 0 3.5 1.567 3.5 3.501 0 1.933-1.566 3.499-3.5 3.499z"/></svg>