<svg xmlns="http://www.w3.org/2000/svg" width="28" height="32"><path fill="#E2574C" d="M27 14c-1.104 0-2-.896-2-2v-9c0-.553-.447-1-1-1h-20c-.553 0-1 .447-1 1v9c0 1.104-.896 2-2 2h-1v16c0 1.105.896 2 2 2h24c1.104 0 2-.895 2-2v-16h-1z"/><g fill="#BB493F"><path d="M6 24l-6 6c0 1.105.896 2 2 2h8v-8h-4zM18 24v8h8c1.104 0 2-.895 2-2l-6-6h-4z"/></g><path fill="#C5493E" d="M25 6h-22v1h22v-1zm0 5h-22v1h22v-1zm-25 5v1h28v-1h-28zm0 6h28v-1h-28v1zm0 5h28v-1h-28v1z"/><path fill="#DB5145" d="M14.085 11h.916v21h-.916v-21z"/><path fill="#B5463D" d="M9 0h10c1.104 0 2 .895 2 2v3c0 1.105-4.896 6-6 6h-2c-1.104 0-6-4.895-6-6v-3c0-1.105.896-2 2-2z"/><path fill="#88342E" d="M11.429 2h5.144c.789 0 1.429.537 1.429 1.199v.801c0 .662-2.777 4-3.566 4h-.867c-.788 0-3.566-3.338-3.566-4v-.8c-.003-.662.637-1.2 1.426-1.2z"/><g fill="#AF4437"><polygon points="10,27 10,26 4,26 3,27"/><polygon points="24,26 18,26 18,27 25,27"/></g><path fill="#A14034" d="M13 11h1.084v21h-1.084v-21z"/><g fill="#C4463A"><rect x="14.085" y="26" width=".916" height="1"/><rect x="14.085" y="21" width=".916" height="1"/><rect x="14.085" y="16" width=".916" height="1"/><rect x="14.085" y="11" width=".916" height="1"/></g><g fill="#E2574C"><path d="M27.82 30.82l-5.82-5.82h-3v7h7c.811 0 1.507-.485 1.82-1.18zM6 25l-5.82 5.82c.313.695 1.009 1.18 1.82 1.18h7v-7h-3z"/></g></svg>