<svg xmlns="http://www.w3.org/2000/svg" width="30" height="32"><path fill="#E2574C" d="M15 0c-8.284 0-15 6.715-15 14.996v8h.005c-.002 2.505-.005 8.888.005 9.004l4.99-3 5 3 5-3 5 3c2.48 0 2.518-3 5-3 2.48 0 2.488 3 4.971 3-.014-.005.014-6.498.025-9.004h.004v-8c0-8.281-6.716-14.996-15-14.996z"/><path fill="#E4E7E7" d="M20.5 13.001c-1.934 0-3.5 1.566-3.5 3.5 0 1.933 1.566 3.499 3.5 3.499s3.5-1.566 3.5-3.499c0-1.934-1.566-3.5-3.5-3.5zm-11 0c-1.933 0-3.5 1.566-3.5 3.5 0 1.933 1.567 3.499 3.5 3.499s3.5-1.566 3.5-3.499c0-1.934-1.567-3.5-3.5-3.5z"/><path fill="#324D5B" d="M20.5 15c-.828 0-1.5.672-1.5 1.501 0 .828.672 1.499 1.5 1.499s1.5-.671 1.5-1.499c0-.829-.672-1.501-1.5-1.501zm-11 0c-.828 0-1.5.672-1.5 1.501 0 .828.672 1.499 1.5 1.499s1.5-.671 1.5-1.499c0-.829-.672-1.501-1.5-1.501z"/><path fill="#D25147" d="M2.003 14.996c0-7.945 6.184-14.429 13.997-14.946-.332-.022-.662-.05-1-.05-8.282 0-14.997 6.714-14.997 14.996 0 0-.003 16.857.01 17.004.923 0 1.503-.404 1.995-.912-.004-1.749-.005-16.092-.005-16.092z"/></svg>