<svg xmlns="http://www.w3.org/2000/svg" width="32.031" height="32.006"><path fill="#51BBA8" d="M5.015.003h22c2.762 0 5 2.239 5 5v22c0 2.762-2.238 5-5 5h-22c-2.762 0-5-2.238-5-5v-22c0-2.761 2.239-5 5-5z"/><path fill="#475F6C" d="M16.015 5.003c6.075 0 11 4.926 11 11 0 6.075-4.925 11-11 11s-11-4.925-11-11c0-6.074 4.925-11 11-11z"/><path fill="#2B414D" d="M16.015 10.003c3.314 0 6 2.687 6 6s-2.686 6-6 6c-3.313 0-6-2.687-6-6s2.687-6 6-6z"/><path fill="#95A0A6" d="M19.015 11.003c1.104 0 2 .896 2 2 0 1.105-.896 2-2 2s-2-.895-2-2 .896-2 2-2z"/><path fill="#EBEBEB" d="M16.015 5.003c-6.075 0-11 4.926-11 11 0 6.075 4.925 11 11 11s11-4.925 11-11c0-6.074-4.924-11-11-11zm0 20.5c-5.238 0-9.5-4.262-9.5-9.5s4.262-9.5 9.5-9.5 9.5 4.262 9.5 9.5-4.261 9.5-9.5 9.5z"/><path fill="#459E8F" d="M16.015 27.003c-6.075 0-11-4.925-11-11 0-2.783 1.042-5.317 2.746-7.254-2.292 2.016-3.746 4.962-3.746 8.254 0 6.075 4.925 11 11 11 3.292 0 6.238-1.454 8.254-3.746-1.936 1.704-4.47 2.746-7.254 2.746z"/></svg>