<svg xmlns="http://www.w3.org/2000/svg" width="32" height="32"><path fill="#51BBA8" d="M11.992 32s-1.059-3.047-4-3c.081 0 4-1 4-1s-.877-3-1-3c-.062.029 3.53.578 4 3 .083-.041 2-2 2-2v6h-5z"/><path fill="#D07C40" d="M15.992 0c1.104 0 2 .896 2 2v30h-4v-30c0-1.103.895-2 2-2z"/><path fill="#F1CD6E" d="M-.008 6h29l3 5.973-3 6.027h-29l3-6.006-3-5.994z"/><path fill="#C4A659" d="M11.439 9.987c-.276 0-.457.176-.536.42l-.654 2.021h-.016l-.661-1.978c-.095-.287-.245-.463-.575-.463-.331 0-.481.176-.575.463l-.662 1.978h-.016l-.654-2.021c-.079-.244-.26-.42-.536-.42-.33 0-.567.191-.567.428 0 .154.04.285.119.498l.961 2.539c.118.309.315.537.686.537.347 0 .552-.187.654-.494l.582-1.707h.017l.583 1.707c.103.309.307.494.653.494.371 0 .567-.229.686-.537l.97-2.553c.062-.162.11-.279.11-.396-.001-.325-.238-.516-.569-.516zm7 0c-.276 0-.457.176-.537.42l-.653 2.021h-.017l-.66-1.978c-.095-.287-.244-.463-.575-.463s-.481.176-.575.463l-.662 1.978h-.016l-.654-2.021c-.079-.244-.26-.42-.536-.42-.33 0-.566.191-.566.428 0 .154.039.285.118.498l.961 2.539c.118.309.315.537.686.537.347 0 .552-.187.653-.494l.583-1.707h.017l.583 1.707c.103.309.308.494.653.494.371 0 .566-.229.686-.537l.971-2.553c.062-.162.109-.279.109-.396-.001-.325-.238-.516-.569-.516zm7 0c-.276 0-.457.176-.537.42l-.653 2.021h-.017l-.66-1.978c-.096-.287-.245-.463-.575-.463-.331 0-.481.176-.575.463l-.662 1.978h-.016l-.654-2.021c-.078-.244-.26-.42-.535-.42-.33 0-.566.191-.566.428 0 .154.039.285.117.498l.961 2.539c.119.309.315.537.687.537.347 0 .552-.187.654-.494l.581-1.707h.018l.583 1.707c.103.309.308.494.653.494.371 0 .566-.229.686-.537l.971-2.553c.062-.162.109-.279.109-.396-.002-.325-.239-.516-.57-.516z"/></svg>