<svg xmlns="http://www.w3.org/2000/svg" width="24" height="32"><path fill="#349886" d="M5 0h-1c-1.104 0-2 .896-2 2v10c0 1.105.896 2 2 2h1c1.104 0 2-.896 2-2v-10c0-1.104-.896-2-2-2zm14 0h-1c-1.104 0-2 .896-2 2v10c0 1.105.896 2 2 2h1c1.104 0 2-.896 2-2v-10c0-1.104-.896-2-2-2z"/><path fill="#51BBA8" d="M12 2c6.627 0 12 5.373 12 12.001v13.999c0 2.21-1.791 4-4 4h-16c-2.209 0-4-1.79-4-4v-13.999c0-6.628 5.373-12.001 12-12.001z"/><path fill="#F1CD6E" d="M15.487 13.81l-2.339-2.338c-.646-.646-1.692-.646-2.338 0l-2.34 2.338c-.646.646-.646 1.693 0 2.339l2.34 2.337c.646.646 1.691.646 2.338 0l2.339-2.337c.646-.646.646-1.693 0-2.339zm-4.487 1.69c0 .276-.224.5-.5.5-.275 0-.5-.224-.5-.5v-1c0-.276.225-.5.5-.5.276 0 .5.224.5.5v1zm3 0c0 .276-.224.5-.5.5-.275 0-.5-.224-.5-.5v-1c0-.276.225-.5.5-.5.276 0 .5.224.5.5v1z"/><path fill="#F1CD6E" d="M0 25.001h24v1h-24v-1z"/><path fill="#475F6C" d="M0 28c0 2.21 1.791 4 4 4h16c2.209 0 4-1.79 4-4v-1.999h-24v1.999z"/></svg>