<svg xmlns="http://www.w3.org/2000/svg" width="30" height="32"><path fill="#E4E7E7" d="M.99 0h28c.553 0 1 .448 1 1v31l-3.014-3-2.98 3-3.01-3-3.016 3-3.006-3-2.992 3-3.002-3-2.986 3-2.994-3-3 3v-31c0-.552.448-1 1-1z"/><path fill="#E2574C" d="M15.99 21.988h-12v1.998h12v-1.998z"/><path fill="#868686" d="M23.99 17.99v2.01h2v-2.01h-2zm-20 1.996h18v-1.998h-18v1.998z"/><path fill="#2494BC" d="M3.99 15h2v-11h-2v11zm4 0h3v-11h-3v11zm12 0h1v-11h-1v11zm3-11v11h3v-11h-3zm-7 11h2v-11h-2v11zm-3 0h1v-11h-1v11z"/></svg>