<svg xmlns="http://www.w3.org/2000/svg" width="32.031" height="32.006"><path fill="#EFF1F1" d="M4.015.003h24c2.209 0 4 1.791 4 4v24c0 2.209-1.791 4-4 4h-24c-2.209 0-4-1.791-4-4v-24c0-2.209 1.791-4 4-4z"/><path fill="#EFF1F1" d="M4.015 3.003h24c2.209 0 4 1.791 4 4v21c0 2.209-1.791 4-4 4h-24c-2.209 0-4-1.791-4-4v-21c0-2.209 1.791-4 4-4z"/><path fill="#EFF1F1" d="M4.015 6.003h24c2.209 0 4 1.791 4 4v18c0 2.209-1.791 4-4 4h-24c-2.209 0-4-1.791-4-4v-18c0-2.209 1.791-4 4-4z"/><path fill="#D7D8D8" d="M28.015.003h-24c-2.209 0-4 1.791-4 4v1c0-2.209 1.791-4 4-4h24c2.209 0 4 1.791 4 4v-1c0-2.209-1.791-4-4-4z"/><path fill="#D7D8D8" d="M28.015 3.003h-24c-2.209 0-4 1.791-4 4v1c0-2.209 1.791-4 4-4h24c2.209 0 4 1.791 4 4v-1c0-2.209-1.791-4-4-4z"/><path fill="#D7D8D8" d="M28.015 6.003h-24c-2.209 0-4 1.791-4 4v1c0-2.209 1.791-4 4-4h24c2.209 0 4 1.791 4 4v-1c0-2.209-1.791-4-4-4z"/><path fill="#E2574C" d="M8.015 3.003h16v24.001l-7.997-5.001-8.003 5.001v-24.001z"/><rect x="8.015" y="3.003" fill="#B5463D" width="16" height="4"/></svg>