<svg xmlns="http://www.w3.org/2000/svg" width="32" height="26"><path fill="#2B414D" d="M19 0h-6c-1.104 0-2 .896-2 2v2h2v-.999c0-.552.448-1.001 1-1.001h4c.553 0 1 .449 1 1.002v.998h2v-2c0-1.104-.896-2-2-2z"/><path fill="#475F6C" d="M2 4h27c1.104 0 2 .896 2 2v18c0 1.104-.896 2-2 2h-26c-1.104 0-2-.896-2-2v-18c0-1.104-.104-2 1-2z"/><path fill="#2B414D" d="M2 4h28c1.104 0 2 .896 2 2v6c0 1.104-.896 2-2 2h-28c-1.104 0-2-.896-2-2v-6c0-1.104.896-2 2-2z"/><path fill="#EFC75E" d="M6 21s.771 2 1.531 2c.74 0 1.469-2 1.469-2v-17h-3v17zm17-17v17s.771 2 1.531 2c.739 0 1.469-2 1.469-2v-17h-3z"/><path fill="#E4E7E7" d="M5 19h5v-3h-5v3zm17-3v3h5v-3h-5z"/><path fill="#EFC75E" d="M16 7c1.104 0 2 .896 2 2s-.896 2-2 2-2-.896-2-2 .896-2 2-2z"/></svg>