<svg xmlns="http://www.w3.org/2000/svg" width="32" height="32.007"><path fill="#2D4552" d="M2.004 28.98l.024 2.992h6.958l.024-2.992c-.002.008-6.998 0-7.006 0zm27.992 0l-7.006.031.023 2.961h6.99l-.007-2.992z"/><g fill="#324D5B"><polygon points="8.986,30.972 2.028,30.972 2.012,28.98 2.004,28.98 2.028,31.972 8.986,31.972 9.01,28.98 9.002,28.98"/><polygon points="23.014,30.972 22.998,29.011 22.99,29.011 23.014,31.972 30.004,31.972 30.001,30.972"/></g><path fill="#1F2F37" d="M2.979 31.972h1.036v-2.992h-1.036v2.992zm1.997 0h1.036v-2.992h-1.036v2.992zm2.024 0h.977v-2.992h-.977v2.992zm21.018-2.961v2.961h1.004v-2.961h-1.004zm-1.997 2.961h.973v-2.961h-.973v2.961zm-2.029.031h1.008v-2.992h-1.008v2.992z"/><path fill="#BF392C" d="M3.016.003h26c1.104 0 2 .895 2 2v25c0 1.104-.896 1.998-2 1.998h-26c-1.104 0-2-.895-2-1.998v-25c0-1.105.895-2 2-2z"/><path fill="#fff" d="M29.016 5.031v-1.03c0-.553-.447-1-1-1h-24c-.553 0-1 .447-1 1v1.027h-.03l.023 10.98 26.005.002.007-10.98h-.005z"/><path fill="#CCD0D2" d="M.008 26.986h31.984v1.994h-31.984v-1.994z"/><path fill="#fff" d="M2.997 24.021h6.032v-5.051h-6.032v5.051zm26.026-5.051h-6.033v5.051h6.033v-5.051z"/><path fill="#F5B863" d="M4.01 22.992h3.984v-3.002h-3.984v3.002zm23.977-3.002h-3.97v3.002h3.97v-3.002z"/><path fill="#E4E7E7" d="M11.005 23.994h10.011v-.998h-10.011v.998zm0-1.996h10.011v-1.028h-10.011v1.028zm0-3.028v1.027h10.011v-1.027h-10.011z"/><path fill="#F0F0F0" d="M3.018 16.009l12.998.001v-13.009h-12c-.549 0-.993.442-.998.99v12.018z"/><rect x="28.018" y="29.011" fill="#202D35" width="1.004" height="2.961"/><rect x="23.992" y="29.011" fill="#202D35" width="1.008" height="2.992"/><rect x="2.979" y="30.972" fill="#23343D" width="1.036" height="1"/><rect x="7" y="30.972" fill="#23343D" width=".977" height="1"/><rect x="4.976" y="30.972" fill="#23343D" width="1.036" height="1"/><rect x="28.018" y="30.972" fill="#23343D" width="1.004" height="1"/><rect x="26.021" y="30.972" fill="#23343D" width=".973" height="1"/><rect x="23.992" y="30.972" fill="#23343D" width="1.008" height="1"/></svg>