<svg xmlns="http://www.w3.org/2000/svg" width="28" height="32"><path fill="#EAEDED" d="M2 0h24c1.104 0 2 .896 2 2v28c0 1.104-.896 2-2 2h-24c-1.104 0-2-.896-2-2v-28c0-1.105.896-2 2-2z"/><path fill="#D3D6D8" d="M3 3h22v7h-22v-7z"/><path fill="#B7BBBD" d="M19 5v3h4v-3h-4zm3 2h-2v-1h2v1z"/><path fill="#49616E" d="M3 16.999h4v-4h-4v4zm6 0h4v-4h-4v4zm6-3.999v4h4v-4h-4zm-12 9.999h4v-3.999h-4v3.999zm6 0h4v-3.999h-4v3.999zm6 0h4v-3.999h-4v3.999zm-12 6h4v-4h-4v4zm6 0h4v-4h-4v4zm6 0h4v-4h-4v4z"/><path fill="#E2574C" d="M21 13v4h4v-4h-4zm0 15.999h4v-9.999h-4v9.999z"/></svg>