<svg xmlns="http://www.w3.org/2000/svg" width="32" height="32.007"><path fill="#EBEBEB" d="M16 .003c8.837 0 16 7.163 16 16s-7.163 16.001-16 16.001-16-7.164-16-16.001 7.163-16 16-16z"/><path fill="#324D5B" d="M23 15.004h-6v-7.002c0-.553-.448-1-1-1s-1 .447-1 1v8c0 .553.448 1 1 1h7c.553 0 1-.447 1-1 0-.55-.447-.998-1-.998z"/><path fill="#E2574C" d="M16 .003c-8.837 0-16 7.163-16 16s7.163 16.001 16 16.001 16-7.164 16-16.001-7.163-16-16-16zm0 29.001c-7.168 0-13-5.832-13-13.001 0-7.168 5.832-13 13-13s13 5.832 13 13c0 7.169-5.832 13.001-13 13.001z"/></svg>