<svg xmlns="http://www.w3.org/2000/svg" width="31.998" height="23"><path fill="#39B29D" d="M25.913 8.143c-.438-4.563-4.237-8.143-8.914-8.143-3.619 0-6.718 2.148-8.146 5.23-.43-.136-.878-.23-1.353-.23-2.485 0-4.5 2.016-4.5 4.5 0 .494.099.961.246 1.404-1.933 1.127-3.246 3.197-3.246 5.595 0 3.59 2.91 6.5 6.5 6.5v.001h17.999v-.001c4.143 0 7.499-3.357 7.499-7.5 0-3.657-2.62-6.694-6.085-7.356zm-4.253 2.931l-6.001 6.57c-.25.274-.587.37-.912.328-.369.105-.774.02-1.063-.298l-2.363-2.587c-.435-.475-.435-1.244 0-1.719.434-.475 1.137-.475 1.57 0l1.771 1.939 5.433-5.948c.433-.473 1.133-.473 1.565 0 .433.475.433 1.244 0 1.715z"/></svg>