<svg xmlns="http://www.w3.org/2000/svg" width="32" height="32"><path fill="#E89C25" d="M16 0c-8.837 0-16 7.164-16 16s7.163 16 16 16 16-7.164 16-16-7.163-16-16-16zm0 22c-3.313 0-6-2.686-6-6s2.687-6 6-6 6 2.686 6 6-2.687 6-6 6z"/><path fill="#7A482E" d="M31.866 17.968c.08-.646.134-1.298.134-1.964-.001-2.542-.608-4.937-1.661-7.071-2.611-5.287-8.043-8.933-14.339-8.933-8.837 0-16 7.164-16 16 0 .328.03.65.049.974.658-.024 1.369-.085 2.002-.204 4.498-.834 4.932-2.133 8.455-3.18.931-2.113 3.038-3.59 5.494-3.59 3.313 0 6 2.686 6 6l-.007.136c2.765 1.603 8.914 1.809 9.873 1.832z"/><path fill="#946C57" d="M16 4.629c6.904 0 12.536 5.387 12.959 12.186.017-.272.041-.541.041-.815 0-7.18-5.82-13-13-13s-13 5.82-13 13c0 .274.024.543.041.814.423-6.798 6.054-12.185 12.959-12.185z"/><g fill="#BB7E1F"><path d="M23 15c0-3.314-2.687-6-6-6-1.911 0-3.61.896-4.71 2.29 1.022-.806 2.309-1.29 3.71-1.29 3.313 0 6 2.686 6 6 0 1.402-.484 2.688-1.29 3.71 1.393-1.099 2.29-2.798 2.29-4.71zM17 31c-8.837 0-16-7.164-16-16 0-4.164 1.604-7.943 4.21-10.79-3.194 2.925-5.21 7.116-5.21 11.79 0 8.836 7.163 16 16 16 4.673 0 8.864-2.016 11.79-5.21-2.847 2.606-6.626 4.21-10.79 4.21z"/></g><path fill="#623A25" d="M21.993 16.136c.242.141.517.267.805.386.128-.487.202-.995.202-1.522 0-3.314-2.687-6-6-6-1.911 0-3.61.896-4.71 2.29l.135-.089c.173-.13.353-.249.539-.359l.258-.146c.191-.101.389-.188.591-.267l.283-.11c.213-.072.434-.125.657-.173l.273-.062c.318-.053.642-.084.974-.084 3.313 0 6 2.686 6 6l-.007.136z"/><path fill="#623A25" d="M1.123 16.898c-.074-.624-.123-1.255-.123-1.898 0-4.164 1.604-7.943 4.21-10.79-.398.364-.777.749-1.137 1.15l-.007.008c-.35.392-.68.803-.991 1.229l-.04.053c-.293.405-.565.825-.821 1.256l-.078.13c-.235.405-.446.823-.645 1.25l-.108.224c-.178.398-.332.808-.477 1.222l-.119.324c-.127.39-.229.791-.327 1.194l-.105.41c-.085.4-.144.811-.198 1.221l-.065.43c-.06.554-.092 1.118-.092 1.689 0 .328.03.65.049.974.35-.013.714-.038 1.074-.076z"/></svg>