<svg xmlns="http://www.w3.org/2000/svg" width="22" height="32"><path fill="#BF392B" d="M5 30.001l-2-12.001c0-1.104.896-1.999 2-1.999v-1c0-1.105.896-2.001 2-2.001h1c0-1.104.896-1.999 2-1.999v2c.366 0 .705.105 1 .277v-1.278c0-1.104.896-2 2-2h1c1.104 0 2 .896 2 2v4.001l2-14c0-.738.404-1.376 1-1.723-.295-.173-.634-.278-1-.278h-1c-1.104 0-2 .896-2 2.001l-.208 4.999h-3.792c-1.104 0-2 .896-2 2.001v1.277c-.295-.173-.634-.278-1-.278h-1c-1.104 0-2 .896-2 2h-1c-1.104 0-2 .896-2 2v1.001c-1.104 0-2 .895-2 1.999l2 13.001c0 1.103.896 1.999 2 1.999h3c-1.104 0-2-.896-2-1.999z"/><path fill="#E2574C" d="M20 0h-1c-1.104 0-2 .896-2 2.001l-1 12v-4.001c0-1.104-.896-2-2-2h-1c-1.104 0-2 .896-2 2v1.278c-.295-.172-.634-.277-1-.277h-1c-1.104 0-2 .895-2 1.999h-1c-1.104 0-2 .896-2 2.001v1c-1.104 0-2 .896-2 1.999l2 12.001c0 1.103.896 1.999 2 1.999h14c1.104 0 2-.896 2-1.999v-28c0-1.105-.896-2.001-2-2.001z"/><path fill="#EFC75E" d="M11.232 18.859h-.668l.254-1.52c.022-.148.035-.339-.23-.339h-.852c-.161 0-.312.063-.334.286l-.254 1.572h-1.357l.253-1.521c.013-.146.022-.337-.241-.337h-.841c-.161 0-.321.062-.346.286l-.253 1.571h-.668c-.161 0-.265.063-.288.254l-.092.605c-.023.148-.035.299.207.299h.668l-.139.955h-.667c-.162 0-.266.063-.288.254l-.093.605c-.022.148-.034.298.208.298h.667l-.253 1.519c-.012.148-.023.34.242.34h.84c.161 0 .322-.074.346-.297l.254-1.562h1.358l-.254 1.519c-.022.148-.034.34.229.34h.842c.16 0 .322-.074.345-.297l.254-1.562h.668c.161 0 .265-.073.299-.256l.081-.615c.021-.139.046-.286-.208-.286h-.667l.068-.479.068-.479h.668c.162 0 .266-.074.299-.255l.082-.616c.024-.132.047-.282-.207-.282zm-2.394 2.116h-1.358l.139-.957h1.347l-.128.957zm7.834 1.527h-.806v-5.214c-.013-.224-.14-.276-.334-.276h-1.117c-.196 0-.322.055-.334.276 0 .797-.507.894-.726.894h-.254c-.265 0-.334.105-.334.308v.86c0 .201.069.308.334.308h.979v2.846h-.979c-.265 0-.334.117-.334.31v.869c0 .191.069.309.334.309h3.569c.265 0 .334-.116.334-.309v-.869c.002-.195-.066-.312-.332-.312z"/></svg>