<svg xmlns="http://www.w3.org/2000/svg" width="32" height="30"><path fill="#DDAF6D" d="M18 0h-4c-5.523 0-13 4.478-13 10v1c0 .553.447 1 1 1h28c.553 0 1-.447 1-1v-1c0-5.522-7.477-10-13-10zm-17 28c0 1.105.896 2 2 2h26c1.104 0 2-.895 2-2v-2h-30v2z"/><path fill="#BB6F39" d="M2 22h28c1.104 0 2 .896 2 2 0 1.105-.896 2-2 2h-28c-1.104 0-2-.895-2-2 0-1.104.896-2 2-2z"/><path fill="#EFC75E" d="M2 18h28v4h-2l-3 3-2.996-3h-20.004v-4z"/><path fill="#3DB39E" d="M30 15.051v-.051h-28v.051c-1.141.231-2 1.239-2 2.449 0 1.381 1.119 2.5 2.5 2.5 1.209 0 2.218-.857 2.449-2h4.051c0 1.104 1.119 2 2.5 2s2.5-.896 2.5-2h4c0 1.104 1.119 2 2.5 2s2.5-.896 2.5-2h4.051c.231 1.143 1.239 2 2.449 2 1.381 0 2.5-1.119 2.5-2.5 0-1.21-.857-2.218-2-2.449z"/><path fill="#BF392C" d="M2 12h28v3h-28v-3z"/><g fill="#C69D63"><path d="M2 12h2c-.553 0-1-.447-1-1v-1c0-5.522 7.477-10 13-10h-2c-5.523 0-13 4.478-13 10v1c0 .553.447 1 1 1zM3 28v-2h-2v2c0 1.105.896 2 2 2h2c-1.104 0-2-.895-2-2z"/></g><path fill="#A86433" d="M2 24c0-1.104.896-2 2-2h-2c-1.104 0-2 .896-2 2 0 1.105.896 2 2 2h2c-1.104 0-2-.895-2-2z"/><g fill="#37A18E"><path d="M2 17.5c0-1.21.859-2.218 2-2.449v-.051h-2v.051c-1.141.231-2 1.239-2 2.449 0 1.381 1.119 2.5 2.5 2.5.354 0 .688-.081.994-.214-.879-.388-1.494-1.265-1.494-2.286zM11 18h-2c0 1.104 1.119 2 2.5 2 .356 0 .693-.062 1-.169-.882-.31-1.5-1.011-1.5-1.831zM20 18h-2c0 1.104 1.119 2 2.5 2 .355 0 .693-.062 1-.169-.882-.31-1.5-1.011-1.5-1.831zM29.051 18h-2c.231 1.143 1.239 2 2.449 2 .357 0 .697-.078 1.006-.214-.736-.321-1.291-.979-1.455-1.786z"/></g></svg>