<svg xmlns="http://www.w3.org/2000/svg" width="32" height="32"><g fill="#F6C37A"><path d="M3.664 22.673l18.772-18.772c.209-.38.168-.86-.154-1.183-1.951-1.952-5.117-1.952-7.07 0l-12.729 12.729c-1.952 1.952-1.952 5.118 0 7.071.322.322.801.363 1.181.155zM28.398 9.264l-19.339 19.339c-.141.366-.067.794.227 1.089 1.992 1.992 5.223 1.992 7.215 0l12.986-12.986c1.992-1.992 1.992-5.222 0-7.214-.295-.295-.723-.368-1.089-.228z"/></g><path fill="#DDAF6D" d="M10.457 28.626c-.398-.398-.398-1.044 0-1.443l17.9-17.9c-.113.05-.221.116-.313.208l-18.758 18.757c-.398.399-.398 1.045 0 1.443 1.992 1.992 5.223 1.992 7.214 0l.595-.595c-1.997 1.487-4.825 1.342-6.638-.47z"/><path fill="#DDAF6D" d="M3.661 22.675l.986-.985c-.341.104-.723.033-.993-.236-1.803-1.804-1.861-4.855-.325-6.852l-.846.846c-1.952 1.952-1.952 5.118 0 7.071.321.32.799.362 1.178.156z"/><path fill="#E37948" d="M30.828 1.171c1.563 1.563 1.563 4.099 0 5.663l-23.994 23.993c-1.563 1.564-4.099 1.564-5.662 0-1.563-1.563-1.563-4.099 0-5.662l23.994-23.994c1.563-1.564 4.099-1.564 5.662 0z"/><path fill="#EFC75E" d="M22.988 6.012c-.553 0-1.001.448-1.001 1.001v1.992h-2.008c-.423 0-.779.262-.927.631-.051.121-.08.253-.08.393v1.993h-1.939l-.045-.009c-.141 0-.275.031-.396.084-.369.148-.629.505-.629.926l.024.126v1.856h-2.007c-.422 0-.778.262-.927.63-.052.121-.081.254-.081.395v1.993h-1.935l-.048-.01c-.143 0-.277.031-.399.085-.368.147-.628.505-.628.925l.025.126v1.858h-2.007c-.553 0-1.002.447-1.002 1s.449 1.002 1.002 1.002h2.966l.044.009c.553 0 1.001-.448 1.001-1.001v-1.992h1.934l.048.01c.553 0 1.002-.449 1.002-1.002v-2.024h1.971l.043.009c.554 0 1.002-.447 1.002-1v-1.993h1.938l.044.009c.553 0 1-.447 1-1v-2.025h1.967l.049.01c.554 0 1.002-.448 1.002-1.001v-3.005c-.001-.553-.449-1.001-1.003-1.001z"/><path fill="#CC6D41" d="M7.834 29.827c-1.563 1.564-4.099 1.564-5.662 0-1.563-1.563-1.563-4.099 0-5.662l-1 1c-1.563 1.563-1.563 4.099 0 5.662 1.563 1.564 4.099 1.564 5.662 0l23.994-23.993-22.994 22.993z"/></svg>