<svg xmlns="http://www.w3.org/2000/svg" width="32" height="32.007"><path fill="#CCCFD1" d="M5.996.015c1.959 0 20.753 2.035 20.753 2.035l2.247 5.965h-20s-9-2.016-9-4c0-1.892 4.041-4 6-4z"/><path fill="#B7BABC" d="M25.857 1.954c-1.461-.157-4.54-.486-7.861-.83v6.891h7l1.753-5.965-.892-.096z"/><path fill="#D9DCDD" d="M6.419 7.58c1.081.272 2.033.435 2.577.435h16.799c-.927-2.282-4.961-4-9.799-4-4.524 0-8.343 1.504-9.577 3.565z"/><path fill="#C2C4C5" d="M17.996 4.119v3.896h7v-1.177c-1.339-1.381-3.91-2.405-7-2.719z"/><path fill="#BF392C" d="M3.768 21.8l18.044-18.045c2.332-2.331 6.112-2.331 8.444 0 2.332 2.332 2.332 6.113 0 8.445l-18.044 18.045c-2.332 2.331-6.112 2.331-8.444 0-2.332-2.332-2.332-6.113 0-8.445z"/><path fill="#E4E5E5" d="M9.984 25.494l.734-.734c.404-.404.404-1.062 0-1.468-.406-.405-1.063-.405-1.469 0l-.734.733-.733-.733c-.405-.405-1.062-.405-1.469 0-.405.405-.405 1.063 0 1.468l.734.734-.734.734c-.405.405-.405 1.062 0 1.468.406.405 1.063.405 1.469 0l.733-.733.734.733c.405.405 1.062.405 1.469 0 .404-.405.404-1.062 0-1.468l-.734-.734z"/></svg>