<svg xmlns="http://www.w3.org/2000/svg" width="31.987" height="31.99" viewBox="0.007 0 31.987 31.99" enable-background="new 0.007 0 31.987 31.99"><path fill-rule="evenodd" clip-rule="evenodd" fill="#26A6D1" d="M.801 18.141l13.11 13.058c1.06 1.056 2.776 1.056 3.835 0l12.893-12.728c1.355-1.351 1.355-4.315 1.355-4.952v-10.802c0-1.492-1.085-2.717-2.582-2.717l-11.427.016c-1.808 0-3.163.45-4.519 1.801l-12.665 12.504c-1.059 1.055-1.059 2.765 0 3.82z"/><path fill="#156E8D" d="M25.494 9.002c-1.379 0-2.5-1.121-2.5-2.5s1.121-2.5 2.5-2.5 2.5 1.122 2.5 2.5c0 1.379-1.121 2.5-2.5 2.5z"/><path fill-rule="evenodd" clip-rule="evenodd" fill="#93D3E8" d="M18.1 8.285c-.389-.388-1.017-.388-1.404 0l-8.419 8.418c-.388.388-.388 1.016 0 1.404.388.387 1.016.387 1.403 0l8.42-8.42c.386-.386.386-1.015 0-1.402zm2.805 2.806c-.388-.388-1.016-.388-1.403 0l-8.419 8.419c-.388.388-.388 1.016 0 1.404.388.387 1.016.387 1.403 0l8.419-8.42c.388-.388.388-1.016 0-1.403zm2.807 2.806c-.388-.387-1.016-.387-1.403 0l-8.42 8.419c-.387.387-.387 1.016 0 1.402.389.389 1.016.389 1.404 0l8.419-8.418c.388-.387.388-1.015 0-1.403z"/><path fill-rule="evenodd" clip-rule="evenodd" fill="#fff" d="M25.494 5.002c.828 0 1.5.671 1.5 1.5 0 .827-.672 1.5-1.5 1.5s-1.5-.672-1.5-1.5.672-1.5 1.5-1.5z"/></svg>