<svg xmlns="http://www.w3.org/2000/svg" width="32" height="32.007" viewBox="-0.042 -0.007 32 32.007" enable-background="new -0.042 -0.007 32 32.007"><path fill="#26A6D1" d="M-.042 0l7.971 3 8.035-3 7.995 3 8-3v29l-8.02 3-8.005-3-7.991 3-7.984-3v-29z"/><polygon fill="#2295BC" points="7.958,31.987 15.934,28.993 15.958,29.002 15.958,-0.005 7.958,2.982"/><polygon fill="#2295BC" points="23.959,2.993 23.959,31.985 31.959,28.993 31.959,-0.007"/><path fill="#EFC75E" d="M23.959 2.993l-7.995-3-3.077 1.148c-5.179 5.964-3.245 10.977 3.62 17.196 5.791 5.245 11.777 8.315 15.451 5.655v-24l-7.999 3.001z"/><path fill="#3DB39E" d="M31.959-.007l-8 3-7.995-3-.011.004c-7.127 6.041-3.635 9.497 2.592 15.229 5.029 4.631 9.055 7.32 13.414 4.768-.045-1.996 0-19.99 0-20.001z"/><path fill="#D7B354" d="M23.959 2.993v20.655c3.104 1.519 5.922 1.85 8 .345v-24l-8 3z"/><path fill="#D7B354" d="M15.958-.005l-1.684.629-1.387.518c-5.035 5.797-3.333 10.699 3.071 16.68v-17.827z"/><path fill="#37A18E" d="M31.959-.007l-8 3v16.511c2.749 1.64 5.312 2.063 8 .489-.045-1.995 0-19.989 0-20z"/><path fill="#37A18E" d="M15.958-.005l-.003.001-.002.001c-6.06 5.136-4.441 8.404.005 12.79v-12.792z"/></svg>