<svg xmlns="http://www.w3.org/2000/svg" width="32" height="29.002"><path fill="#324D5B" d="M20 0h-8c-1.104 0-2 .896-2 2v3h2v-2c0-.552.447-1 1-1h6c.553 0 1 .448 1 1v2h2v-3c0-1.103-.896-2-2-2z"/><path fill="#E2574C" d="M2 5.001h28c1.104 0 2 .896 2 2.001v20c0 1.104-.896 2-2 2h-28c-1.104 0-2-.896-2-2v-20c0-1.105.896-2.001 2-2.001z"/><path fill="#fff" d="M21 15h-3v-2.998c0-.553-.447-1.002-1-1.002h-2c-.553 0-1 .449-1 1.002v2.998h-3c-.553 0-1 .449-1 1v2c0 .554.447 1.002 1 1.002h3v2.998c0 .554.447 1 1 1h2c.553 0 1-.446 1-1v-2.998h3c.553 0 1-.448 1-1.002v-2c0-.55-.447-1-1-1z"/><g fill="#BF392C"><path d="M2 5.001c-1.104 0-2 .896-2 2.001v4.999l7-7h-5zM1.99 29.001h5.01l-7-7.001v5.002c0 1.101.89 1.994 1.99 1.999zM30 5.001h-5l7 7v-4.999c0-1.105-.896-2.001-2-2.001zM30.01 29.001c1.1-.006 1.99-.898 1.99-1.999v-5.002l-7 7.001h5.01z"/></g></svg>