<svg xmlns="http://www.w3.org/2000/svg" width="32" height="32"><path fill="#DBDEE0" d="M30.928 10.719c.043-.235.072-.473.072-.719 0-2.21-1.791-4-4-4-1.576 0-2.926.919-3.577 2.243-.545-.751-1.424-1.244-2.423-1.244-1.657 0-3 1.344-3 3.001 0 .243.036.477.092.703-.662.55-1.092 1.369-1.092 2.297 0 1.657 1.343 3 3 3h9c1.657 0 3-1.343 3-3 0-.919-.422-1.731-1.072-2.281z"/><path fill="#3DB39E" d="M16 .001l16 31.999h-32l16-31.999z"/><path fill="#E4E7E7" d="M10 11.001l3 2.999 3-2.999 3 2.999 3-2.999-5-11.001h-2l-5 11.001z"/><path fill="#4A4A4A" d="M18 29.001h2v2.999h-2v-2.999z"/><polygon fill="#277264" points="23.966,29.001 20.793,25 23,25 19,20 15,25 17.2,25 14,29.001"/><polygon fill="#349886" points="7,18 0,32 1,32 15,18"/><path fill="#ECEEEE" d="M13.928 14.719c.042-.235.072-.473.072-.719 0-2.21-1.791-4-4-4-1.576 0-2.926.919-3.577 2.243-.545-.751-1.424-1.244-2.423-1.244-1.657 0-3 1.344-3 3.001 0 .243.036.477.091.703-.661.55-1.091 1.369-1.091 2.297 0 1.657 1.343 3 3 3h9c1.657 0 3-1.343 3-3 0-.919-.422-1.731-1.072-2.281z"/></svg>