<svg xmlns="http://www.w3.org/2000/svg" width="32" height="31"><path fill="#D07C40" d="M4 17h24l-3 14h-18l-3-14z"/><path fill="#CD9770" d="M15.469 31h1.031l.5-13h-2l.469 13zm-3.469 0h1v-13h-2l1 13zm-5-13l2 13h1l-1-13h-2zm12 13h1l1-13h-2v13zm4-13l-1 13h1l2-13h-2z"/><path fill="#C1733B" d="M3 17l3.001 14h7.996l14.003-14h-25z"/><g fill="#BF8C68"><polygon points="17,18 15,18 15.417,29.58 16.6,28.397"/><polygon points="11,18 12,31 13,31 13,18"/><polygon points="21,18 19,18 19,25.998 20.5,24.498"/><polygon points="7,18 9,31 10,31 9,18"/><polygon points="25,18 23,18 22.667,22.332 24.637,20.363"/></g><path fill="#F4B459" d="M32 14.53c0-3.248-3.229-3.353-3.229-3.353l.026-.561c0-4.629-3.424-8.632-7.844-8.632-.774 0-1.681.372-2.392.588-.821-1.528-2.367-2.572-4.162-2.572-2.092 0-3.76 1.411-4.417 3.367l-.382-.013c-3.534 0-6.618 2.721-6.618 6.115 0 .582.309 1.174.466 1.709h-.248c-1.768 0-3.2 1.501-3.2 3.353v1.117c0 1.853 1.433 3.321 3.2 3.321.944 0 1.783-.312 2.369-.992h1.661c.586.681 1.426.992 2.369.992.944 0 1.783-.312 2.369-.992h1.662c.586.681 1.425.992 2.369.992.944 0 1.783-.312 2.369-.992h1.661c.587.681 1.425.992 2.369.992.943 0 1.783-.312 2.369-.992h1.66c.586.681 1.426.992 2.369.992 1.768 0 3.201-1.469 3.201-3.321l.003-1.118z"/><path fill="#C39047" d="M8.5 12c-.828 0-1.5.671-1.5 1.5s.672 1.5 1.5 1.5 1.5-.672 1.5-1.5-.672-1.5-1.5-1.5zm3-5c-.828 0-1.5.671-1.5 1.5s.672 1.5 1.5 1.5 1.5-.671 1.5-1.5-.672-1.5-1.5-1.5zm8.5-1c-1.104 0-2 .896-2 2 0 1.105.896 2 2 2s2-.895 2-2c0-1.104-.896-2-2-2zm4.5 6c-.828 0-1.5.672-1.5 1.5s.672 1.5 1.5 1.5 1.5-.672 1.5-1.5-.672-1.5-1.5-1.5zm-8.5 0c-.553 0-1 .448-1 1 0 .553.447 1 1 1 .553 0 1-.447 1-1 0-.553-.447-1-1-1z"/></svg>