<svg xmlns="http://www.w3.org/2000/svg" width="32" height="32.086"><path fill="#D07C40" d="M32 12.087c-.145-.421-.373-.818-.709-1.154l-13.166-9.985c-1.717-1.265-2.592-1.265-4.28 0l-13.109 9.985c-.336.336-.565.733-.71 1.154l15.959 14 16.015-14z"/><path fill="#E4E7E7" d="M4 3.088h24v19.999h-24v-19.999z"/><path fill="#E8AB54" d="M1.648 30.751l14.333-11.165 14.37 11.166c.531-.271.967-.691 1.258-1.211l-13.484-10.591c-1.702-1.256-2.597-1.276-4.28 0l-13.463 10.574c.29.526.728.953 1.266 1.227z"/><path fill="#C2C5C5" d="M8 8.088v2h16v-2h-16zm0 5.999h16v-1.999h-16v1.999z"/><path fill="#E8AB54" d="M16 24.087l16-12v17c0 1.657-1.343 3-3 3h-26c-1.657 0-3-1.343-3-3v-17l16 12z"/><path fill="#F4B459" d="M29.32 32.054c.648-.069 1.234-.34 1.691-.756l-15.03-11.713-14.995 11.713c.458.417 1.043.687 1.693.757l26.641-.001z"/><path fill="#F9D7A7" d="M.382 30.524c.29.526.729.953 1.266 1.228l14.333-11.164 14.37 11.165c.531-.271.967-.691 1.258-1.211l-13.484-10.594c-1.889-1.399-2.347-1.463-4.28 0l-13.463 10.576z"/></svg>