<svg xmlns="http://www.w3.org/2000/svg" width="32" height="23.98"><path fill="#E7A793" d="M32 10.505c0-5.803-6.49-10.506-14.494-10.506-2.781 0-5.372.578-7.578 1.564-.048-.207-.12-.409-.253-.573h-4.387c-.404.502-.404 1.313 0 1.813l.914 1.134c-1.441 1.303-2.464 2.854-2.92 4.558l-1.216.327c-1.486.399-2.368 1.934-1.97 3.424l.721 2.7c.398 1.49 1.927 2.377 3.413 1.979l1.423-.383c1.032 1.062 2.322 1.982 3.814 2.705l-.402 1.816c-.27 1.217.385 2.482 1.459 2.83 1.074.348 2.162-.357 2.432-1.574l.388-1.752c1.319.285 2.715.441 4.161.441 1.812 0 3.535-.25 5.134-.688l.459 1.969c.284 1.213 1.373 1.932 2.432 1.607 1.06-.326 1.688-1.572 1.402-2.785l-.541-2.318c3.407-1.923 5.609-4.917 5.609-8.288z"/><path fill="#9B7063" d="M18.012 2.997c-2.505 0-5.009.855-5.009.855v1.139s2.502-.854 5.004-.854 5.009.816 5.009.816v-1.136s-2.502-.82-5.004-.82zm-10.004 4.986c-.556 0-1.007.446-1.007.998 0 .551.451.998 1.007.998.556 0 1.007-.447 1.007-.998 0-.552-.452-.998-1.007-.998z"/></svg>