<svg xmlns="http://www.w3.org/2000/svg" width="20" height="32"><path fill="#324D5B" d="M9 15v16c0 .553.447 1 1 1s1-.447 1-1v-16h-2z"/><path fill="#E2574C" d="M10 0c5.523 0 10 4.478 10 10s-4.477 10.001-10 10.001c-5.522.001-10-4.479-10-10.001s4.478-10 10-10z"/><path fill="#E87970" d="M13 5.001c1.657 0 3 1.342 3 2.999s-1.343 3-3 3c-1.656 0-3-1.343-3-3 0-1.656 1.344-2.999 3-2.999z"/><path fill="#CB4E44" d="M11 19.002c-5.521 0-10-4.48-10-10.002 0-2.507.929-4.792 2.453-6.547-2.112 1.835-3.453 4.532-3.453 7.547 0 5.522 4.478 10.001 10 10.001 3.016 0 5.713-1.342 7.547-3.453-1.755 1.526-4.04 2.454-6.547 2.454z"/></svg>