<svg xmlns="http://www.w3.org/2000/svg" width="28" height="32"><path fill="#CCD0D2" d="M14 0c-7.732 0-14 6.269-14 14.001 0 4.755 2.376 8.949 6 11.479v5.521c0 .552.447.999 1 .999h2v-3c0-.552.448-1 1-1 .553 0 1 .448 1 1v3h2v-3c0-.552.448-1 1-1 .553 0 1 .448 1 1v3h2v-3c0-.552.447-1 1-1s1 .448 1 1v3h2c.552 0 1-.447 1-.999v-5.521c3.624-2.53 6-6.727 6-11.479 0-7.732-6.27-14.001-14-14.001z"/><path fill="#A3A6A8" d="M21.553 15.158l-1.15-1.136 1.117-1.104c.418-.412.418-1.081 0-1.493-.418-.413-1.096-.413-1.513 0l-1.118 1.104-1.117-1.104c-.418-.413-1.097-.413-1.515 0-.418.412-.418 1.081 0 1.493l1.118 1.104-1.15 1.136c-.418.413-.418 1.081 0 1.494.418.412 1.094.412 1.512 0l1.152-1.138 1.151 1.138c.418.412 1.095.412 1.513 0 .418-.413.418-1.081 0-1.494zm-11.014-1.136l1.117-1.104c.418-.412.418-1.081 0-1.493-.418-.413-1.095-.413-1.513 0l-1.118 1.104-1.118-1.104c-.418-.413-1.096-.413-1.513 0-.418.412-.418 1.081 0 1.493l1.117 1.104-1.151 1.136c-.417.413-.417 1.081 0 1.494.418.412 1.096.412 1.514 0l1.151-1.138 1.151 1.138c.418.412 1.095.412 1.514 0 .417-.413.417-1.083 0-1.494l-1.151-1.136z"/><path fill="#B7BBBD" d="M8 31.001v-5.521c-3.624-2.53-6-6.727-6-11.479 0-7.395 5.736-13.436 13-13.951-.332-.023-.663-.05-1-.05-7.732 0-14 6.269-14 14.001 0 4.755 2.376 8.949 6 11.479v5.521c0 .552.447.999 1 .999h2c-.553 0-1-.447-1-.999z"/></svg>