<svg xmlns="http://www.w3.org/2000/svg" width="24" height="32"><path fill="#324D5B" d="M1.327.015h21.347c.732 0 1.326.6 1.326 1.338v29.293c0 .739-.594 1.339-1.326 1.339h-21.347c-.733 0-1.327-.6-1.327-1.339v-29.293c0-.739.594-1.338 1.327-1.338z"/><path fill="#EFC75E" d="M12 16.03c3.316 0 6.005 2.683 6.005 5.991 0 3.31-2.688 5.992-6.005 5.992s-6.004-2.683-6.004-5.992c0-3.308 2.688-5.991 6.004-5.991z"/><path fill="#324D5B" d="M12 18.005c2.216 0 4.012 1.791 4.012 4.001s-1.796 4.001-4.012 4.001-4.012-1.791-4.012-4.001 1.796-4.001 4.012-4.001z"/><path fill="#E4E7E7" d="M12 21.008c.559 0 1.012.448 1.012 1.001 0 .552-.453 1-1.012 1s-1.011-.448-1.011-1c0-.553.452-1.001 1.011-1.001z"/><path fill="#E4E7E7" d="M12 4.001c2.216 0 4.012 1.791 4.012 4.001s-1.796 4.001-4.012 4.001-4.012-1.791-4.012-4.001 1.796-4.001 4.012-4.001z"/><path fill="#324D5B" d="M12 5.017c1.655 0 2.998 1.344 2.998 3.002 0 1.657-1.343 3.001-2.998 3.001s-2.997-1.344-2.997-3.001c0-1.659 1.342-3.002 2.997-3.002z"/><path fill="#EFC75E" d="M12 7.005c.547 0 .99.447.99 1s-.443 1-.99 1-.99-.447-.99-1 .443-1 .99-1z"/></svg>