<svg xmlns="http://www.w3.org/2000/svg" width="32.007" height="28"><path fill="#E4E7E7" d="M3 1.995h26.001v26h-26.001v-26z"/><path fill="#CCD0D2" d="M5.017-.005h21.934l2.051 1.996h-26.002l2.017-1.996z"/><path fill="#26A6D1" d="M5 25.995h6v-15h-6v15zm8 0h6.001v-15h-6.001v15zm8.001-15v15h6v-15h-6z"/><path fill="#B6B9B9" d="M3 10.995h26.001v2h-26.001v-2z"/><path fill="#E4E7E7" d="M32 7.986l-3.209-2.993h-25.566l-3.21 2.993h-.008v2.003c0 .553.448 1.001 1 1.001h30c.553 0 1-.448 1-1.001v-2.003h-.007z"/><g fill="#2295BC"><polygon points="9,20.995 9,17.995 5,17.995 5,25.995 11,25.995 11,20.995"/><rect x="13" y="20.995" width="2" height="5"/><rect x="18.001" y="22.995" width="1" height="3"/><polygon points="22.001,17.995 22.001,22.995 21.001,22.995 21.001,25.995 27.001,25.995 27.001,17.995"/></g><path fill="#51BBA8" d="M7 21.995h-4c-1.104 0-2 .896-2 2v2c0 1.104.896 2 2 2h4c1.104 0 2-.896 2-2v-2c0-1.104-.896-2-2-2zm22.001 0h-4c-1.105 0-2 .896-2 2v2c0 1.104.895 2 2 2h4c1.104 0 2-.896 2-2v-2c0-1.104-.896-2-2-2z"/><g fill="#419687"><path d="M8 26.995h-4c-1.104 0-2-.896-2-2v-2c0-.293.066-.569.18-.82-.694.313-1.18 1.009-1.18 1.82v2c0 1.104.896 2 2 2h4c.812 0 1.506-.485 1.82-1.181-.251.116-.527.181-.82.181zM30.001 26.995h-4c-1.105 0-2-.896-2-2v-2c0-.293.064-.569.18-.82-.695.313-1.18 1.009-1.18 1.82v2c0 1.104.895 2 2 2h4c.811 0 1.506-.485 1.818-1.181-.249.116-.525.181-.818.181z"/></g><g fill="#2295BC"><rect x="21.001" y="10.995" width="6" height="2"/><rect x="5" y="10.995" width="6" height="2"/><rect x="13" y="10.995" width="6.001" height="2"/></g><polygon fill="#C2C5C5" points="0.001,7.986 0,7.986 0,7.995 31.994,7.995 31.994,7.986 31.984,7.986 28.777,4.995 3.21,4.995"/><polygon fill="#C2C5C5" points="0.001,7.986 0,7.986 0,7.995 31.994,7.995 31.994,7.986 31.984,7.986 28.777,4.995 3.21,4.995"/><g fill="#E2574C"><polygon points="7,7.995 8.438,4.995 6.438,4.995 5,7.995 5,10.99 7,10.99"/><polygon points="11,7.995 12,4.995 10,4.995 9,7.995 9,10.99 11,10.99"/><path d="M3 7.995l2-3h-1.777l-3.208 2.991h-.008v2.003c0 .553.448 1.001 1 1.001h1.993v-2.995zM31.994 7.995l-.024-.037-3.178-2.963h-1.799l2 3v2.995h2.014c.527 0 .951-.414.986-.933v-2.062z"/><rect x="13" y="4.995" width="2" height="5.995"/><polygon points="26.994,10.99 26.994,7.995 25.556,4.995 23.556,4.995 24.994,7.995 24.994,10.99"/><polygon points="22.994,10.99 22.994,7.995 21.994,4.995 19.994,4.995 20.994,7.995 20.994,10.99"/><rect x="17.001" y="4.995" width="2" height="5.995"/></g><g fill="#C04A40"><polygon points="25.556,4.995 23.556,4.995 24.994,7.995 26.994,7.995"/><polygon points="21.994,4.995 19.994,4.995 20.994,7.995 22.994,7.995"/><rect x="13" y="4.995" width="2" height="3"/><polygon points="10,4.995 9,7.995 11,7.995 12,4.995"/><polygon points="6.438,4.995 5,7.995 7,7.995 8.438,4.995"/><rect x="17.001" y="4.995" width="2" height="3"/><polygon points="31.994,7.995 31.97,7.958 28.792,4.995 26.994,4.995 28.994,7.995"/><polygon points="3.223,4.995 0.015,7.986 0.007,7.986 0.007,7.995 3,7.995 5,4.995"/></g></svg>