<svg xmlns="http://www.w3.org/2000/svg" width="31.011" height="32.009" viewBox="-0.005 0.001 31.011 32.009" enable-background="new -0.005 0.001 31.011 32.009"><g fill="#E2574C"><path d="M4.496 18.19l2.452 2.45c.217.217.517.353.849.353.663 0 1.201-.538 1.201-1.2 0-.332-.135-.632-.352-.849l-2.452-2.451 2.453-2.45c.218-.217.353-.518.353-.849 0-.662-.538-1.199-1.201-1.199-.332 0-.632.135-.849.352l-2.453 2.451-2.452-2.451c-.217-.217-.518-.352-.849-.352-.664 0-1.201.537-1.201 1.199 0 .331.135.632.352.849l2.453 2.45-2.452 2.451c-.218.217-.353.517-.353.849 0 .662.538 1.2 1.201 1.2.332 0 .632-.136.849-.353l2.451-2.45zM28.202 25.496l2.452-2.45c.217-.217.352-.519.352-.849 0-.662-.537-1.199-1.2-1.199-.332 0-.633.135-.85.352l-2.452 2.451-2.452-2.451c-.217-.217-.518-.352-.849-.352-.663 0-1.201.537-1.201 1.199 0 .33.136.632.353.849l2.451 2.45-2.45 2.451c-.218.217-.354.517-.354.848 0 .664.538 1.201 1.201 1.201.331 0 .632-.136.849-.353l2.452-2.45 2.452 2.45c.217.217.518.353.85.353.663 0 1.2-.537 1.2-1.201 0-.331-.135-.631-.352-.848l-2.452-2.451zM23.106 6.693c.488-.379.57-1.091.183-1.589l-.161-.167-7.769-4.941v.002l-.002-.002-3.159 8.744-.023.232c0 .637.505 1.153 1.128 1.153.564 0 .866-.421 1.11-.981v-.001l.038-.075 1.422-3.727c.723 1.748 1.133 3.578 1.257 5.414l.021.293c.29 5.685-2.211 11.388-7.117 14.871-1.573 1.118-3.811 2.196-5.889 2.863 0 0-2.149.66-2.149 1.725 0 .796.665 1.494 1.443 1.494 1.309 0 6.001-2.151 8.201-3.713 7.513-5.336 10.197-15.117 7.048-23.478l2.951 1.791c.534.29 1.026.435 1.467.092z"/></g></svg>