<svg xmlns="http://www.w3.org/2000/svg" width="27.979" height="31.969"><path fill="#484848" d="M.341 29.991l7.659-7.651c.454-.452 1.188-.452 1.642 0 .453.453.453 1.188 0 1.641l-4.02 4.016h16.738l-4.021-4.016c-.453-.453-.453-1.188 0-1.641.453-.452 1.188-.452 1.643 0l7.658 7.651c.453.451.453 1.187 0 1.638-.453.453-1.188.453-1.641 0l-1.707-1.642h-20.604l-1.705 1.642c-.453.453-1.188.453-1.643 0-.453-.451-.453-1.187.001-1.638z"/><path fill="#BF392C" d="M3.971 0h20c1.104 0 2 .895 2 2v22c0 1.104-.896 2-2 2h-20c-1.104 0-2-.896-2-2v-22c0-1.105.896-2 2-2z"/><path fill="#fff" d="M3.971 6h20v11h-20v-11z"/><path fill="#F0F0F0" d="M3.973 5.964h9.998v11.046h-9.998v-11.046z"/><path fill="#EBEBEB" d="M8.971 2h10v2h-10v-2z"/><path fill="#fff" d="M3.971 23h6v-4h-6v4zm14-4v4h6v-4h-6z"/><path fill="#F4B459" d="M4.971 22h4v-2.002h-4v2.002zm14-2.002v2.002h4v-2.002h-4z"/></svg>