<svg xmlns="http://www.w3.org/2000/svg" width="31.957" height="32"><path fill="#324D5B" d="M15.042 10l-.006 18.913c0 .697-.705 1.264-1.494 1.264-.79 0-1.432-.564-1.432-1.264 0-.502-.463-.912-1.035-.912-.57 0-1.033.41-1.033.912 0 .826.363 1.602 1.025 2.186.662.581 1.54.901 2.475.901s1.813-.32 2.475-.904c.654-.576 1.016-1.342 1.021-2.156l.004-.002v-18.938h-2z"/><path fill="#3DB39E" d="M15.966 0c-8.133 0-14.853 6.169-15.924 13.972.905-.27 2.871-1.018 3.963-1.018 2.93 0 5.159 1.533 5.992 3.043l.003.001.001-.003c.833-1.508 3.16-3.01 6.089-3.01 2.93 0 5.158 1.502 5.992 3.01l.006.005.004-.004s3.002-3.01 5.931-3.01c1.253 0 2.983.641 3.978.988-1.014-7.864-7.855-13.974-16.035-13.974z"/><path fill="#318F7E" d="M16.243.013l-.039-.001c-4.009 2.263-6.182 7.241-6.202 15.987l.001-.003c.833-1.508 3.16-3.01 6.089-3.01 2.93 0 5.159 1.502 5.993 3.01-.017-8.744-1.818-13.517-5.842-15.983z"/></svg>